<svg width="31" height="49" viewBox="0 0 31 49" fill="none" xmlns="http://www.w3.org/2000/svg">
<path d="M13.9704 48.1996V2.50234e-06H17.0581V48.1996H13.9704ZM22.1605 15.9096C22.0099 14.3908 21.3635 13.211 20.2212 12.37C19.079 11.529 17.5288 11.1085 15.5707 11.1085C14.2402 11.1085 13.1168 11.2968 12.2005 11.6733C11.2842 12.0374 10.5813 12.5457 10.0918 13.1984C9.61481 13.8511 9.37633 14.5917 9.37633 15.4201C9.35122 16.1105 9.49557 16.713 9.80937 17.2276C10.1357 17.7422 10.5813 18.1878 11.1462 18.5644C11.711 18.9284 12.3637 19.2485 13.1043 19.5246C13.8448 19.7882 14.6356 20.0141 15.4766 20.2024L18.9409 21.0308C20.6229 21.4074 22.1668 21.9095 23.5726 22.5371C24.9784 23.1647 26.196 23.9366 27.2252 24.8529C28.2545 25.7692 29.0516 26.8487 29.6164 28.0913C30.1938 29.334 30.4888 30.7586 30.5013 32.3653C30.4888 34.7251 29.8863 36.771 28.6938 38.5032C27.5139 40.2228 25.8069 41.5596 23.5726 42.5136C21.3509 43.455 18.6711 43.9257 15.5331 43.9257C12.4202 43.9257 9.70895 43.4487 7.39939 42.4947C5.10238 41.5408 3.30744 40.1287 2.01459 38.2584C0.734289 36.3756 0.0627581 34.0472 -1.89991e-06 31.2733H7.88892C7.97678 32.5661 8.34706 33.6456 8.99977 34.5117C9.66502 35.3652 10.5499 36.0116 11.6545 36.4509C12.7716 36.8777 14.0331 37.0911 15.4389 37.0911C16.8196 37.0911 18.0184 36.8903 19.0351 36.4886C20.0643 36.0869 20.8614 35.5284 21.4262 34.8129C21.9911 34.0975 22.2735 33.2753 22.2735 32.3465C22.2735 31.4804 22.0162 30.7524 21.5015 30.1624C20.9995 29.5725 20.2589 29.0704 19.2798 28.6562C18.3133 28.242 17.1272 27.8654 15.7214 27.5265L11.5227 26.4721C8.27175 25.6814 5.70487 24.445 3.82208 22.763C1.93928 21.0811 1.00416 18.8154 1.01671 15.9661C1.00416 13.6315 1.62548 11.5918 2.88068 9.84703C4.14843 8.10231 5.88688 6.74042 8.09602 5.76136C10.3052 4.78231 12.8156 4.29278 15.6272 4.29278C18.4891 4.29278 20.9869 4.78231 23.1207 5.76136C25.2671 6.74042 26.9365 8.10231 28.129 9.84703C29.3214 11.5918 29.9365 13.6126 29.9741 15.9096H22.1605Z" fill="#B2B09D"/>
</svg>
