<svg width="47" height="47" viewBox="0 0 47 47" fill="none" xmlns="http://www.w3.org/2000/svg">
<path d="M25.4203 46.4827H21.0625C19.061 46.4827 17.431 44.8544 17.431 42.8512V32.6832C17.431 32.2837 17.1055 31.9569 16.7047 31.9569C14.7033 31.9569 13.0733 30.3286 13.0733 28.3254V17.4343C13.0733 15.0304 15.03 13.0737 17.4339 13.0737H29.0488C31.4527 13.0737 33.4095 15.0304 33.4095 17.4343V28.3254C33.4095 30.3286 31.7812 31.9569 29.778 31.9569C29.3785 31.9569 29.0517 32.2837 29.0517 32.6832V42.8512C29.0517 44.8544 27.4234 46.4827 25.4203 46.4827ZM17.4339 15.9784C16.6321 15.9784 15.9785 16.6321 15.9785 17.4339V28.325C15.9785 28.7245 16.304 29.0513 16.7047 29.0513C18.7062 29.0513 20.3362 30.6796 20.3362 32.6827V42.8508C20.3362 43.2503 20.6617 43.5771 21.0625 43.5771H25.4203C25.8197 43.5771 26.1465 43.2503 26.1465 42.8508V32.6827C26.1465 30.6796 27.7749 29.0513 29.778 29.0513C30.1775 29.0513 30.5043 28.7245 30.5043 28.325V17.4339C30.5043 16.6321 29.8519 15.9784 29.0488 15.9784H17.4339Z" fill="#B2B09D"/>
<path d="M23.2414 11.6207C20.037 11.6207 17.431 9.01475 17.431 5.81035C17.431 2.60595 20.037 1.52588e-05 23.2414 1.52588e-05C26.4458 1.52588e-05 29.0517 2.60595 29.0517 5.81035C29.0517 9.01475 26.4458 11.6207 23.2414 11.6207ZM23.2414 2.90518C21.6393 2.90518 20.3362 4.20828 20.3362 5.81035C20.3362 7.41243 21.6393 8.71552 23.2414 8.71552C24.8434 8.71552 26.1465 7.41243 26.1465 5.81035C26.1465 4.20828 24.8434 2.90518 23.2414 2.90518Z" fill="#B2B09D"/>
<path d="M38.4935 46.4827H33.4094C32.6063 46.4827 31.9568 45.8333 31.9568 45.0301C31.9568 44.227 32.6063 43.5775 33.4094 43.5775H38.4935C38.8929 43.5775 39.2198 43.2507 39.2198 42.8513V34.1357C39.2198 32.1326 40.8481 30.5043 42.8512 30.5043C43.2507 30.5043 43.5775 30.1775 43.5775 29.778V18.8869C43.5775 18.0851 42.9252 17.4314 42.122 17.4314H37.7672C36.964 17.4314 36.3146 16.7807 36.3146 15.9789C36.3146 15.177 36.964 14.5263 37.7672 14.5263H42.122C44.5259 14.5263 46.4827 16.483 46.4827 18.8869V29.778C46.4827 31.7812 44.8544 33.4095 42.8512 33.4095C42.4518 33.4095 42.1249 33.7363 42.1249 34.1357V42.8513C42.1249 44.8544 40.4966 46.4827 38.4935 46.4827Z" fill="#B2B09D"/>
<path d="M13.0733 46.4827H7.98922C5.98772 46.4827 4.35775 44.8544 4.35775 42.8513V34.1357C4.35775 33.7363 4.03222 33.4095 3.63146 33.4095C1.62997 33.4095 0 31.7812 0 29.778V18.8869C0 16.483 1.95676 14.5263 4.36066 14.5263H8.71551C9.51735 14.5263 10.1681 15.177 10.1681 15.9789C10.1681 16.7807 9.51735 17.4314 8.71551 17.4314H4.36066C3.55882 17.4314 2.90517 18.0851 2.90517 18.8869V29.778C2.90517 30.1775 3.23071 30.5043 3.63146 30.5043C5.63296 30.5043 7.26292 32.1326 7.26292 34.1357V42.8513C7.26292 43.2507 7.58846 43.5775 7.98922 43.5775H13.0733C13.8751 43.5775 14.5258 44.227 14.5258 45.0301C14.5258 45.8333 13.8751 46.4827 13.0733 46.4827Z" fill="#B2B09D"/>
<path d="M37.7672 13.0733C34.5628 13.0733 31.9568 10.4673 31.9568 7.26294C31.9568 4.05854 34.5628 1.4526 37.7672 1.4526C40.9716 1.4526 43.5775 4.05854 43.5775 7.26294C43.5775 10.4673 40.9716 13.0733 37.7672 13.0733ZM37.7672 4.35777C36.1651 4.35777 34.862 5.66086 34.862 7.26294C34.862 8.86501 36.1651 10.1681 37.7672 10.1681C39.3693 10.1681 40.6724 8.86501 40.6724 7.26294C40.6724 5.66086 39.3693 4.35777 37.7672 4.35777Z" fill="#B2B09D"/>
<path d="M8.7155 13.0733C5.5111 13.0733 2.90517 10.4673 2.90517 7.26294C2.90517 4.05854 5.5111 1.4526 8.7155 1.4526C11.9199 1.4526 14.5258 4.05854 14.5258 7.26294C14.5258 10.4673 11.9199 13.0733 8.7155 13.0733ZM8.7155 4.35777C7.11343 4.35777 5.81034 5.66086 5.81034 7.26294C5.81034 8.86501 7.11343 10.1681 8.7155 10.1681C10.3176 10.1681 11.6207 8.86501 11.6207 7.26294C11.6207 5.66086 10.3176 4.35777 8.7155 4.35777Z" fill="#B2B09D"/>
</svg>
